<?xml version="1.0" standalone="no"?>
<!DOCTYPE svg PUBLIC "-//W3C//DTD SVG 20010904//EN"
 "http://www.w3.org/TR/2001/REC-SVG-20010904/DTD/svg10.dtd">
<svg version="1.0" xmlns="http://www.w3.org/2000/svg"
 width="800.000000pt" height="800.000000pt" viewBox="0 0 800.000000 800.000000"
 preserveAspectRatio="xMidYMid meet">
<metadata>
Created by potrace 1.14, written by Peter Selinger 2001-2017
</metadata>
<g transform="translate(0.000000,800.000000) scale(0.100000,-0.100000)"
fill="#000000" stroke="none">
<path d="M3768 7144 c-3 -2 -29 -6 -59 -9 -128 -11 -165 -15 -189 -20 -14 -3
-63 -12 -110 -20 -47 -8 -122 -24 -165 -36 -44 -12 -84 -22 -90 -23 -5 -1 -37
-10 -70 -20 -33 -10 -64 -19 -70 -21 -5 -1 -17 -5 -25 -8 -8 -4 -42 -16 -75
-27 -33 -12 -69 -25 -80 -30 -87 -38 -119 -50 -131 -50 -8 0 -14 -3 -14 -8 0
-4 -15 -13 -32 -21 -48 -21 -134 -64 -203 -101 -118 -64 -403 -259 -413 -282
-2 -4 -8 -8 -14 -8 -5 0 -15 -6 -22 -12 -7 -7 -42 -38 -77 -68 -118 -103 -349
-341 -349 -360 0 -6 -4 -10 -8 -10 -5 0 -23 -20 -41 -45 -17 -24 -37 -50 -44
-57 -45 -46 -203 -293 -279 -438 -88 -167 -203 -444 -223 -540 -2 -8 -10 -35
-18 -60 -14 -43 -27 -90 -33 -119 -1 -7 -8 -34 -14 -60 -10 -45 -14 -63 -26
-131 -4 -19 -8 -44 -11 -55 -14 -73 -30 -232 -38 -385 -2 -36 -4 -66 -4 -68
-1 -4 -39 35 -261 268 -345 362 -323 343 -400 354 -44 6 -94 -15 -132 -55 -41
-44 -54 -88 -43 -146 8 -46 16 -55 188 -237 78 -82 160 -168 182 -191 548
-576 543 -572 592 -584 67 -18 119 0 190 67 61 57 295 281 429 409 39 37 147
140 239 228 92 88 174 166 182 174 72 70 75 176 6 245 -38 37 -82 52 -142 48
-37 -3 -76 -27 -132 -82 -20 -19 -103 -99 -185 -177 -130 -124 -216 -206 -342
-326 l-32 -31 5 110 c6 109 11 169 20 234 3 19 7 51 10 70 3 20 10 60 16 90 5
30 13 66 15 80 9 45 35 144 50 191 8 25 16 54 18 65 2 10 10 33 17 49 6 17 13
35 14 41 8 34 96 236 146 334 89 174 287 476 320 488 5 2 9 8 9 12 0 19 251
279 345 359 73 61 259 197 345 251 136 86 468 244 558 265 9 3 44 14 77 25 33
12 67 23 75 25 13 3 80 20 165 41 17 4 37 9 45 11 8 2 22 4 30 5 8 0 33 4 55
8 135 28 226 34 475 35 202 0 321 -6 391 -20 13 -3 51 -10 84 -15 130 -20 272
-56 415 -105 58 -19 110 -37 115 -38 6 -2 26 -10 45 -19 19 -8 60 -26 90 -39
101 -43 332 -167 338 -181 2 -4 8 -8 14 -8 10 0 211 -138 244 -168 11 -9 42
-35 69 -56 82 -64 316 -305 390 -401 38 -49 72 -92 75 -95 3 -3 30 -42 60 -87
41 -62 65 -88 96 -103 94 -47 188 -11 233 89 29 65 9 129 -71 232 -15 20 -28
40 -28 43 0 3 -8 15 -17 27 -39 46 -49 58 -63 79 -8 12 -23 32 -33 43 -11 12
-35 42 -55 67 -40 48 -252 263 -317 320 -22 20 -71 60 -110 90 -38 30 -71 58
-73 62 -2 5 -10 8 -17 8 -7 0 -15 4 -17 8 -7 18 -307 212 -327 212 -5 0 -14 7
-21 15 -7 9 -15 14 -17 11 -3 -2 -32 11 -65 30 -33 19 -61 34 -63 34 -2 0 -36
15 -77 33 -40 19 -100 44 -133 56 -33 13 -69 27 -80 31 -59 25 -280 91 -351
104 -11 2 -38 9 -62 15 -24 7 -59 14 -79 17 -39 5 -73 11 -113 19 -14 3 -50 8
-80 11 -30 3 -71 8 -90 10 -46 7 -517 14 -522 8z"/>
<path d="M5138 5892 c-15 -2 -33 -11 -40 -20 -7 -9 -33 -30 -58 -47 -25 -16
-50 -34 -56 -40 -6 -5 -49 -28 -97 -50 -47 -22 -86 -42 -86 -45 0 -3 16 -23
37 -46 40 -43 37 -43 107 -13 17 7 32 13 35 14 3 0 24 11 47 23 23 12 44 22
45 22 2 0 3 -179 3 -397 l0 -398 100 0 99 0 1 498 c0 490 0 497 -20 498 -11 0
-36 1 -55 2 -19 1 -47 1 -62 -1z"/>
<path d="M3717 5664 c-1 -1 -40 -5 -87 -9 -46 -3 -87 -8 -91 -10 -3 -2 -21 -7
-40 -10 -19 -3 -72 -19 -119 -36 -47 -16 -89 -31 -95 -32 -5 -1 -12 -4 -15 -7
-3 -3 -34 -20 -70 -39 -132 -67 -318 -222 -428 -356 -60 -73 -173 -247 -217
-334 -38 -76 -103 -225 -110 -251 0 -3 -11 -34 -22 -70 -23 -67 -46 -154 -67
-249 -11 -49 -22 -124 -32 -211 -3 -36 -8 -78 -10 -95 -4 -40 -5 -318 0 -375
4 -48 15 -146 22 -195 4 -30 9 -57 20 -105 3 -14 7 -36 10 -50 18 -89 63 -234
112 -355 95 -237 225 -437 390 -604 65 -65 127 -124 138 -132 12 -8 48 -32 80
-55 67 -46 174 -105 222 -122 l32 -11 0 42 c1 23 3 125 6 227 2 102 6 253 8
336 2 83 6 156 9 161 3 5 2 15 -3 22 -4 8 -4 26 0 42 9 31 3 41 -72 128 -21
24 -38 49 -38 56 0 7 -7 16 -16 19 -8 3 -12 10 -9 16 3 5 2 10 -2 10 -8 0 -63
109 -107 211 -26 60 -68 226 -82 324 -22 161 -22 394 1 512 2 11 6 37 9 57 3
20 11 55 16 78 6 24 13 53 15 65 3 12 19 60 35 107 87 245 246 446 420 529
165 79 340 65 497 -40 110 -73 216 -200 291 -348 29 -58 87 -212 97 -258 2
-12 11 -53 20 -92 14 -66 22 -120 30 -210 6 -56 5 -242 0 -290 -2 -22 -6 -62
-9 -90 -3 -27 -8 -61 -11 -75 -4 -14 -9 -38 -12 -55 -8 -48 -53 -196 -67 -222
-12 -24 -13 -24 -76 64 -35 48 -67 90 -70 93 -3 3 -38 51 -79 107 -40 57 -78
106 -84 110 -5 3 -39 -25 -75 -63 -60 -65 -293 -311 -354 -376 -16 -16 -28
-31 -28 -35 0 -5 187 -261 200 -273 3 -3 99 -131 214 -285 115 -154 212 -282
215 -285 4 -3 17 -22 31 -42 14 -21 28 -38 33 -38 4 0 7 -6 7 -12 1 -7 14 -29
30 -48 17 -19 30 -38 30 -43 0 -5 8 -16 19 -25 10 -10 82 -101 159 -204 l140
-187 68 77 c78 87 116 129 171 189 21 22 47 52 58 65 12 12 47 52 78 87 31 35
57 67 57 70 0 4 -8 16 -18 27 -10 10 -33 42 -52 69 -18 28 -36 52 -40 55 -3 3
-35 46 -70 95 -36 50 -71 96 -77 103 -19 20 -17 28 23 93 43 71 144 282 144
301 0 8 5 19 10 24 6 6 12 19 14 30 3 10 12 39 21 64 18 50 64 233 70 277 2
15 4 28 5 28 7 0 26 153 35 280 9 138 4 385 -10 450 -2 11 -7 43 -10 70 -30
233 -128 538 -237 735 -17 30 -36 64 -42 75 -14 26 -108 168 -116 175 -3 3
-27 32 -55 65 -127 154 -282 278 -454 365 -73 37 -194 82 -253 94 -13 3 -32 7
-43 9 -42 10 -232 27 -238 21z"/>
<path d="M5340 5637 c0 -55 165 -536 241 -704 l19 -43 85 0 c80 0 86 2 94 23
5 12 18 43 29 67 20 45 80 202 88 230 2 8 25 76 50 150 42 124 68 210 81 268
5 21 3 22 -75 22 l-81 0 -10 -37 c-5 -21 -15 -58 -21 -83 -7 -25 -13 -52 -15
-60 -2 -8 -11 -42 -21 -75 -10 -33 -18 -62 -19 -65 -7 -30 -47 -159 -54 -170
-4 -8 -14 -36 -22 -62 -7 -27 -17 -48 -21 -48 -6 0 -17 24 -19 45 0 6 -5 18
-11 28 -8 15 -64 195 -73 232 -1 6 -4 17 -7 25 -10 29 -36 125 -53 198 l-17
72 -84 0 c-62 0 -84 -3 -84 -13z"/>
<path d="M6932 4539 c-12 -5 -22 -6 -22 -3 0 19 -111 -87 -460 -440 -217 -219
-409 -412 -427 -428 -75 -70 -102 -140 -79 -209 31 -97 121 -142 221 -109 21
7 130 109 322 303 159 160 296 297 304 304 12 10 14 5 13 -30 -3 -54 -14 -202
-19 -247 -14 -123 -35 -245 -55 -320 -7 -25 -14 -56 -16 -70 -3 -14 -7 -32
-10 -40 -3 -8 -16 -52 -29 -96 -13 -45 -38 -117 -56 -160 -39 -100 -46 -117
-50 -129 -6 -22 -103 -212 -121 -237 -11 -16 -16 -28 -11 -28 4 0 3 -4 -2 -8
-6 -4 -29 -38 -52 -77 -44 -75 -185 -274 -225 -316 -13 -14 -34 -39 -47 -55
-54 -69 -207 -219 -322 -314 -95 -79 -121 -99 -151 -118 -16 -9 -28 -20 -28
-24 0 -4 -6 -8 -14 -8 -8 0 -16 -4 -18 -8 -2 -6 -92 -64 -203 -130 -203 -120
-556 -254 -795 -301 -30 -6 -66 -14 -80 -16 -86 -17 -206 -33 -310 -40 -130
-9 -425 -3 -507 10 -18 3 -49 7 -68 10 -19 3 -50 7 -67 10 -318 45 -702 185
-993 362 -49 30 -99 59 -110 66 -11 7 -22 14 -25 17 -3 3 -27 21 -55 40 -27
19 -57 40 -65 47 -8 7 -43 34 -78 62 -183 145 -400 379 -541 583 -84 122 -102
137 -170 145 -102 11 -184 -61 -185 -162 -1 -43 6 -63 43 -123 24 -40 47 -72
52 -72 5 0 9 -5 9 -11 0 -26 213 -281 345 -413 87 -86 281 -256 293 -256 3 0
12 -7 21 -16 20 -19 203 -150 214 -152 4 -1 33 -18 65 -38 163 -105 566 -284
715 -319 12 -3 72 -19 132 -35 61 -17 124 -32 140 -34 17 -2 41 -6 55 -9 50
-12 182 -32 295 -45 131 -15 577 -6 684 13 18 3 107 17 131 20 63 9 106 18
126 25 13 5 24 8 24 5 0 -2 42 8 93 21 50 14 99 27 107 29 109 24 405 143 570
228 171 88 421 252 518 337 19 17 35 30 37 30 25 0 367 349 461 471 101 129
224 308 224 325 0 7 4 14 8 16 20 8 195 351 191 374 0 4 3 10 8 13 16 12 96
238 138 391 64 233 100 455 110 675 2 55 5 102 6 105 1 3 1 8 0 13 0 4 2 7 5
7 4 0 136 -129 294 -286 158 -157 300 -292 316 -301 94 -50 227 19 241 125 12
87 13 85 -475 570 -252 250 -469 460 -484 468 -35 18 -78 23 -106 13z"/>
</g>
</svg>
