<?xml version="1.0" encoding="UTF-8" standalone="no"?>
<!-- Generator: Adobe Illustrator 16.0.0, SVG Export Plug-In . SVG Version: 6.00 Build 0)  -->

<svg
   version="1.1"
   id="Layer_1"
   x="0px"
   y="0px"
   width="50px"
   height="50px"
   viewBox="-245.5 -175.5 50 50"
   enable-background="new -245.5 -175.5 50 50"
   xml:space="preserve"
   sodipodi:docname="transactions.svg"
   inkscape:version="1.1 (1:1.1+202105261517+ce6663b3b7)"
   inkscape:export-filename="/home/juliojamil/projetos/transactions.png"
   inkscape:export-xdpi="125.3"
   inkscape:export-ydpi="125.3"
   xmlns:inkscape="http://www.inkscape.org/namespaces/inkscape"
   xmlns:sodipodi="http://sodipodi.sourceforge.net/DTD/sodipodi-0.dtd"
   xmlns="http://www.w3.org/2000/svg"
   xmlns:svg="http://www.w3.org/2000/svg"><defs
   id="defs7" /><sodipodi:namedview
   id="namedview5"
   pagecolor="#ffffff"
   bordercolor="#666666"
   borderopacity="1.0"
   inkscape:pageshadow="2"
   inkscape:pageopacity="0.0"
   inkscape:pagecheckerboard="0"
   showgrid="false"
   inkscape:zoom="6.64"
   inkscape:cx="25.451807"
   inkscape:cy="24.924699"
   inkscape:window-width="1528"
   inkscape:window-height="836"
   inkscape:window-x="72"
   inkscape:window-y="27"
   inkscape:window-maximized="1"
   inkscape:current-layer="layer2" />

<g
   inkscape:groupmode="layer"
   id="layer2"
   inkscape:label="Layer 2"
   style="display:inline"><path
     id="path843"
     transform="translate(-245.5,-175.5)"
     d="M 25.162109,6.3320312 C 23.123812,6.308 21.056312,6.6192188 19.039062,7.2929688 11.476063,9.8199687 6.4176875,16.845937 6.3046875,24.710938 L 3.0351562,21.283203 c -0.381,-0.399 -1.0140624,-0.414203 -1.4140624,-0.0332 -0.3990001,0.381 -0.4142032,1.014062 -0.033203,1.414062 l 4.9921875,5.234376 c 0.183,0.192 0.4342188,0.302593 0.6992188,0.308593 h 0.023437 c 0.256,0 0.5034531,-0.09739 0.6894531,-0.27539 L 13.226562,22.93555 c 0.399,-0.381 0.414157,-1.014063 0.03516,-1.414063 -0.382,-0.4 -1.014063,-0.413203 -1.414063,-0.0332 L 8.3066433,24.86524 c 0.048,-7.073 4.5732347,-13.405781 11.3652347,-15.6757809 7.202,-2.407 15.119953,0.3680469 19.251953,6.7480469 0.3,0.463 0.918813,0.597875 1.382813,0.296875 0.464,-0.3 0.596875,-0.919813 0.296875,-1.382813 C 37.132516,9.4928125 31.277,6.404125 25.162109,6.3320312 Z M 42.544922,21.751953 c -0.25575,0.0011 -0.510578,0.100375 -0.705078,0.296875 l -5.091797,5.136719 c -0.389,0.393 -0.386141,1.027015 0.0059,1.416015 0.195,0.193 0.449125,0.289063 0.703125,0.289063 0.257,0 0.514938,-0.09792 0.710938,-0.294922 l 3.43164,-3.462891 c -0.049,7.073 -4.574234,13.405782 -11.365234,15.675782 -7.203,2.406 -15.119953,-0.369047 -19.251953,-6.748047 -0.3,-0.464 -0.918813,-0.596875 -1.3828126,-0.296875 -0.464,0.3 -0.5949219,0.919812 -0.2949219,1.382812 3.5140005,5.424 9.4661565,8.521485 15.6601565,8.521485 1.967,0 3.960297,-0.312891 5.904297,-0.962891 7.59,-2.536 12.654468,-9.602906 12.730468,-17.503906 l 3.386719,3.353516 c 0.392,0.388999 1.025063,0.38614 1.414063,-0.0059 0.389,-0.393 0.38614,-1.026016 -0.0059,-1.416016 l -5.140625,-5.089843 c -0.1965,-0.195 -0.453234,-0.292141 -0.708984,-0.291016 z"
     style="stroke:none;fill:#bd93f9;fill-opacity:1" /></g><g
   inkscape:groupmode="layer"
   id="layer1"
   inkscape:label="Layer 1"
   style="display:inline"><path
     id="path5797"
     style="display:inline;fill:#bd93f9;fill-opacity:1;stroke:none;stroke-width:0.130642;stroke-linecap:round;stroke-linejoin:round"
     d="m -213.85485,-161.73059 c -0.10003,0.10841 -0.22732,0.21972 -0.3819,0.33385 -0.14549,0.10841 -0.3046,0.21682 -0.47736,0.32524 -0.17277,0.1027 -0.35465,0.19971 -0.54561,0.291 -0.18186,0.0913 -0.35918,0.16829 -0.53195,0.23105 l 0.47742,0.53068 c 0.22732,-0.0799 0.44102,-0.16549 0.64106,-0.25678 0.20915,-0.0913 0.39098,-0.18831 0.54556,-0.29101 v 4.76742 h 1.17301 v -5.93145 z m -8.15955,1.36037 c -4.69972,-3e-5 -8.50962,5.02088 -8.50965,11.21446 -1e-5,3.08211 0.94344,5.87385 2.47051,7.90096 0.99721,1.32375 2.24333,2.32134 3.6381,2.86091 l 0.13145,-5.202 c -0.37675,-0.3662 -0.71487,-0.82088 -1.00261,-1.34565 -0.64973,-1.18494 -1.04254,-2.72693 -1.04253,-4.4129 -1e-5,-3.73817 1.93081,-6.76849 4.31256,-6.7685 2.38173,1e-5 4.31251,3.03033 4.31249,6.7685 0,1.24353 -0.21369,2.40875 -0.58653,3.41013 -0.0304,0.0817 -0.0653,0.15851 -0.0978,0.23796 l -1.80032,-2.44749 -2.7065,2.86569 4.5436,6.0569 0.0333,0.17971 c 0.0227,-0.0145 0.0447,-0.0308 0.0673,-0.0455 l 1.76179,2.34847 2.58223,-2.86585 -1.64894,-2.24159 c 1.27795,-1.96187 2.0511,-4.51136 2.05109,-7.29975 -3e-5,-6.19353 -3.80987,-11.21441 -8.50955,-11.21446 z m 9.41787,0.0776 c 0.0979,0.3766 0.21088,0.77316 0.3389,1.1897 0.13554,0.41654 0.27106,0.82742 0.40661,1.23255 0.14308,0.39942 0.28618,0.77888 0.42926,1.13836 0.14308,0.35948 0.27486,0.67045 0.39534,0.93292 h 1.00527 c 0.12048,-0.26247 0.25227,-0.57344 0.39534,-0.93292 0.14308,-0.35948 0.28239,-0.73894 0.41794,-1.13836 0.14307,-0.40513 0.27865,-0.81601 0.40667,-1.23255 0.13554,-0.41654 0.25227,-0.8131 0.35016,-1.1897 h -0.97141 c -0.0602,0.26819 -0.13558,0.56489 -0.22595,0.89014 -0.0828,0.32524 -0.17318,0.65337 -0.27107,0.98432 -0.0979,0.32525 -0.19956,0.64192 -0.30499,0.95005 -0.0979,0.30812 -0.19203,0.57632 -0.2824,0.80456 -0.0904,-0.22824 -0.1845,-0.49644 -0.28239,-0.80456 -0.0979,-0.30813 -0.19578,-0.6248 -0.29367,-0.95005 -0.0904,-0.33095 -0.18071,-0.65908 -0.27107,-0.98432 -0.0828,-0.32525 -0.15439,-0.62195 -0.21463,-0.89014 z" /></g></svg>
